<mxfile host="app.diagrams.net" modified="2020-09-09T14:28:12.226Z" agent="5.0 (Macintosh; Intel Mac OS X 10_15_6) AppleWebKit/605.1.15 (KHTML, like Gecko) Version/13.1.2 Safari/605.1.15" etag="eAcj2arS-eWkvfJuDzpE" version="13.6.9" type="github">
  <diagram id="R2lEEEUBdFMjLlhIrx00" name="Page-1">
    <mxGraphModel dx="1261" dy="780" grid="1" gridSize="10" guides="1" tooltips="1" connect="1" arrows="1" fold="1" page="1" pageScale="1" pageWidth="1920" pageHeight="1200" math="0" shadow="0" extFonts="Permanent Marker^https://fonts.googleapis.com/css?family=Permanent+Marker">
      <root>
        <mxCell id="0" />
        <mxCell id="1" parent="0" />
        <mxCell id="bmSGANUnVweaU7KZ2uj6-1" value="User&#xa;" style="shape=table;startSize=30;container=1;collapsible=1;childLayout=tableLayout;fixedRows=1;rowLines=0;fontStyle=1;align=center;resizeLast=1;" vertex="1" parent="1">
          <mxGeometry x="90" y="60" width="180" height="230" as="geometry" />
        </mxCell>
        <mxCell id="bmSGANUnVweaU7KZ2uj6-2" value="" style="shape=partialRectangle;collapsible=0;dropTarget=0;pointerEvents=0;fillColor=none;top=0;left=0;bottom=1;right=0;points=[[0,0.5],[1,0.5]];portConstraint=eastwest;" vertex="1" parent="bmSGANUnVweaU7KZ2uj6-1">
          <mxGeometry y="30" width="180" height="30" as="geometry" />
        </mxCell>
        <mxCell id="bmSGANUnVweaU7KZ2uj6-3" value="PK" style="shape=partialRectangle;connectable=0;fillColor=none;top=0;left=0;bottom=0;right=0;fontStyle=1;overflow=hidden;" vertex="1" parent="bmSGANUnVweaU7KZ2uj6-2">
          <mxGeometry width="30" height="30" as="geometry" />
        </mxCell>
        <mxCell id="bmSGANUnVweaU7KZ2uj6-4" value="UserID" style="shape=partialRectangle;connectable=0;fillColor=none;top=0;left=0;bottom=0;right=0;align=left;spacingLeft=6;fontStyle=5;overflow=hidden;" vertex="1" parent="bmSGANUnVweaU7KZ2uj6-2">
          <mxGeometry x="30" width="150" height="30" as="geometry" />
        </mxCell>
        <mxCell id="bmSGANUnVweaU7KZ2uj6-5" value="" style="shape=partialRectangle;collapsible=0;dropTarget=0;pointerEvents=0;fillColor=none;top=0;left=0;bottom=0;right=0;points=[[0,0.5],[1,0.5]];portConstraint=eastwest;" vertex="1" parent="bmSGANUnVweaU7KZ2uj6-1">
          <mxGeometry y="60" width="180" height="30" as="geometry" />
        </mxCell>
        <mxCell id="bmSGANUnVweaU7KZ2uj6-6" value="" style="shape=partialRectangle;connectable=0;fillColor=none;top=0;left=0;bottom=0;right=0;editable=1;overflow=hidden;" vertex="1" parent="bmSGANUnVweaU7KZ2uj6-5">
          <mxGeometry width="30" height="30" as="geometry" />
        </mxCell>
        <mxCell id="bmSGANUnVweaU7KZ2uj6-7" value="FirstName" style="shape=partialRectangle;connectable=0;fillColor=none;top=0;left=0;bottom=0;right=0;align=left;spacingLeft=6;overflow=hidden;" vertex="1" parent="bmSGANUnVweaU7KZ2uj6-5">
          <mxGeometry x="30" width="150" height="30" as="geometry" />
        </mxCell>
        <mxCell id="bmSGANUnVweaU7KZ2uj6-8" value="" style="shape=partialRectangle;collapsible=0;dropTarget=0;pointerEvents=0;fillColor=none;top=0;left=0;bottom=0;right=0;points=[[0,0.5],[1,0.5]];portConstraint=eastwest;" vertex="1" parent="bmSGANUnVweaU7KZ2uj6-1">
          <mxGeometry y="90" width="180" height="30" as="geometry" />
        </mxCell>
        <mxCell id="bmSGANUnVweaU7KZ2uj6-9" value="" style="shape=partialRectangle;connectable=0;fillColor=none;top=0;left=0;bottom=0;right=0;editable=1;overflow=hidden;" vertex="1" parent="bmSGANUnVweaU7KZ2uj6-8">
          <mxGeometry width="30" height="30" as="geometry" />
        </mxCell>
        <mxCell id="bmSGANUnVweaU7KZ2uj6-10" value="LastName" style="shape=partialRectangle;connectable=0;fillColor=none;top=0;left=0;bottom=0;right=0;align=left;spacingLeft=6;overflow=hidden;" vertex="1" parent="bmSGANUnVweaU7KZ2uj6-8">
          <mxGeometry x="30" width="150" height="30" as="geometry" />
        </mxCell>
        <mxCell id="bmSGANUnVweaU7KZ2uj6-11" value="" style="shape=partialRectangle;collapsible=0;dropTarget=0;pointerEvents=0;fillColor=none;top=0;left=0;bottom=0;right=0;points=[[0,0.5],[1,0.5]];portConstraint=eastwest;" vertex="1" parent="bmSGANUnVweaU7KZ2uj6-1">
          <mxGeometry y="120" width="180" height="40" as="geometry" />
        </mxCell>
        <mxCell id="bmSGANUnVweaU7KZ2uj6-12" value="" style="shape=partialRectangle;connectable=0;fillColor=none;top=0;left=0;bottom=0;right=0;editable=1;overflow=hidden;" vertex="1" parent="bmSGANUnVweaU7KZ2uj6-11">
          <mxGeometry width="30" height="40" as="geometry" />
        </mxCell>
        <mxCell id="bmSGANUnVweaU7KZ2uj6-13" value="UserName" style="shape=partialRectangle;connectable=0;fillColor=none;top=0;left=0;bottom=0;right=0;align=left;spacingLeft=6;overflow=hidden;" vertex="1" parent="bmSGANUnVweaU7KZ2uj6-11">
          <mxGeometry x="30" width="150" height="40" as="geometry" />
        </mxCell>
        <mxCell id="bmSGANUnVweaU7KZ2uj6-15" value="" style="shape=partialRectangle;collapsible=0;dropTarget=0;pointerEvents=0;fillColor=none;top=0;left=0;bottom=0;right=0;points=[[0,0.5],[1,0.5]];portConstraint=eastwest;" vertex="1" parent="bmSGANUnVweaU7KZ2uj6-1">
          <mxGeometry y="160" width="180" height="30" as="geometry" />
        </mxCell>
        <mxCell id="bmSGANUnVweaU7KZ2uj6-16" value="" style="shape=partialRectangle;connectable=0;fillColor=none;top=0;left=0;bottom=0;right=0;editable=1;overflow=hidden;" vertex="1" parent="bmSGANUnVweaU7KZ2uj6-15">
          <mxGeometry width="30" height="30" as="geometry" />
        </mxCell>
        <mxCell id="bmSGANUnVweaU7KZ2uj6-17" value="Password" style="shape=partialRectangle;connectable=0;fillColor=none;top=0;left=0;bottom=0;right=0;align=left;spacingLeft=6;overflow=hidden;" vertex="1" parent="bmSGANUnVweaU7KZ2uj6-15">
          <mxGeometry x="30" width="150" height="30" as="geometry" />
        </mxCell>
        <mxCell id="bmSGANUnVweaU7KZ2uj6-19" value="" style="shape=partialRectangle;collapsible=0;dropTarget=0;pointerEvents=0;fillColor=none;top=0;left=0;bottom=0;right=0;points=[[0,0.5],[1,0.5]];portConstraint=eastwest;" vertex="1" parent="bmSGANUnVweaU7KZ2uj6-1">
          <mxGeometry y="190" width="180" height="30" as="geometry" />
        </mxCell>
        <mxCell id="bmSGANUnVweaU7KZ2uj6-20" value="" style="shape=partialRectangle;connectable=0;fillColor=none;top=0;left=0;bottom=0;right=0;editable=1;overflow=hidden;" vertex="1" parent="bmSGANUnVweaU7KZ2uj6-19">
          <mxGeometry width="30" height="30" as="geometry" />
        </mxCell>
        <mxCell id="bmSGANUnVweaU7KZ2uj6-21" value="Email" style="shape=partialRectangle;connectable=0;fillColor=none;top=0;left=0;bottom=0;right=0;align=left;spacingLeft=6;overflow=hidden;" vertex="1" parent="bmSGANUnVweaU7KZ2uj6-19">
          <mxGeometry x="30" width="150" height="30" as="geometry" />
        </mxCell>
        <mxCell id="bmSGANUnVweaU7KZ2uj6-22" value="Room" style="shape=table;startSize=30;container=1;collapsible=1;childLayout=tableLayout;fixedRows=1;rowLines=0;fontStyle=1;align=center;resizeLast=1;" vertex="1" parent="1">
          <mxGeometry x="390" y="100" width="180" height="490" as="geometry" />
        </mxCell>
        <mxCell id="bmSGANUnVweaU7KZ2uj6-23" value="" style="shape=partialRectangle;collapsible=0;dropTarget=0;pointerEvents=0;fillColor=none;top=0;left=0;bottom=1;right=0;points=[[0,0.5],[1,0.5]];portConstraint=eastwest;" vertex="1" parent="bmSGANUnVweaU7KZ2uj6-22">
          <mxGeometry y="30" width="180" height="30" as="geometry" />
        </mxCell>
        <mxCell id="bmSGANUnVweaU7KZ2uj6-24" value="PK" style="shape=partialRectangle;connectable=0;fillColor=none;top=0;left=0;bottom=0;right=0;fontStyle=1;overflow=hidden;" vertex="1" parent="bmSGANUnVweaU7KZ2uj6-23">
          <mxGeometry width="30" height="30" as="geometry" />
        </mxCell>
        <mxCell id="bmSGANUnVweaU7KZ2uj6-25" value="RoomID" style="shape=partialRectangle;connectable=0;fillColor=none;top=0;left=0;bottom=0;right=0;align=left;spacingLeft=6;fontStyle=5;overflow=hidden;" vertex="1" parent="bmSGANUnVweaU7KZ2uj6-23">
          <mxGeometry x="30" width="150" height="30" as="geometry" />
        </mxCell>
        <mxCell id="bmSGANUnVweaU7KZ2uj6-26" value="" style="shape=partialRectangle;collapsible=0;dropTarget=0;pointerEvents=0;fillColor=none;top=0;left=0;bottom=0;right=0;points=[[0,0.5],[1,0.5]];portConstraint=eastwest;" vertex="1" parent="bmSGANUnVweaU7KZ2uj6-22">
          <mxGeometry y="60" width="180" height="30" as="geometry" />
        </mxCell>
        <mxCell id="bmSGANUnVweaU7KZ2uj6-27" value="" style="shape=partialRectangle;connectable=0;fillColor=none;top=0;left=0;bottom=0;right=0;editable=1;overflow=hidden;" vertex="1" parent="bmSGANUnVweaU7KZ2uj6-26">
          <mxGeometry width="30" height="30" as="geometry" />
        </mxCell>
        <mxCell id="bmSGANUnVweaU7KZ2uj6-28" value="NumberOfBeds" style="shape=partialRectangle;connectable=0;fillColor=none;top=0;left=0;bottom=0;right=0;align=left;spacingLeft=6;overflow=hidden;" vertex="1" parent="bmSGANUnVweaU7KZ2uj6-26">
          <mxGeometry x="30" width="150" height="30" as="geometry" />
        </mxCell>
        <mxCell id="bmSGANUnVweaU7KZ2uj6-29" value="" style="shape=partialRectangle;collapsible=0;dropTarget=0;pointerEvents=0;fillColor=none;top=0;left=0;bottom=0;right=0;points=[[0,0.5],[1,0.5]];portConstraint=eastwest;" vertex="1" parent="bmSGANUnVweaU7KZ2uj6-22">
          <mxGeometry y="90" width="180" height="30" as="geometry" />
        </mxCell>
        <mxCell id="bmSGANUnVweaU7KZ2uj6-30" value="" style="shape=partialRectangle;connectable=0;fillColor=none;top=0;left=0;bottom=0;right=0;editable=1;overflow=hidden;" vertex="1" parent="bmSGANUnVweaU7KZ2uj6-29">
          <mxGeometry width="30" height="30" as="geometry" />
        </mxCell>
        <mxCell id="bmSGANUnVweaU7KZ2uj6-31" value="HasPool" style="shape=partialRectangle;connectable=0;fillColor=none;top=0;left=0;bottom=0;right=0;align=left;spacingLeft=6;overflow=hidden;" vertex="1" parent="bmSGANUnVweaU7KZ2uj6-29">
          <mxGeometry x="30" width="150" height="30" as="geometry" />
        </mxCell>
        <mxCell id="bmSGANUnVweaU7KZ2uj6-32" value="" style="shape=partialRectangle;collapsible=0;dropTarget=0;pointerEvents=0;fillColor=none;top=0;left=0;bottom=0;right=0;points=[[0,0.5],[1,0.5]];portConstraint=eastwest;" vertex="1" parent="bmSGANUnVweaU7KZ2uj6-22">
          <mxGeometry y="120" width="180" height="30" as="geometry" />
        </mxCell>
        <mxCell id="bmSGANUnVweaU7KZ2uj6-33" value="" style="shape=partialRectangle;connectable=0;fillColor=none;top=0;left=0;bottom=0;right=0;editable=1;overflow=hidden;" vertex="1" parent="bmSGANUnVweaU7KZ2uj6-32">
          <mxGeometry width="30" height="30" as="geometry" />
        </mxCell>
        <mxCell id="bmSGANUnVweaU7KZ2uj6-34" value="HasEntertainment" style="shape=partialRectangle;connectable=0;fillColor=none;top=0;left=0;bottom=0;right=0;align=left;spacingLeft=6;overflow=hidden;" vertex="1" parent="bmSGANUnVweaU7KZ2uj6-32">
          <mxGeometry x="30" width="150" height="30" as="geometry" />
        </mxCell>
        <mxCell id="bmSGANUnVweaU7KZ2uj6-36" value="" style="shape=partialRectangle;collapsible=0;dropTarget=0;pointerEvents=0;fillColor=none;top=0;left=0;bottom=0;right=0;points=[[0,0.5],[1,0.5]];portConstraint=eastwest;" vertex="1" parent="bmSGANUnVweaU7KZ2uj6-22">
          <mxGeometry y="150" width="180" height="30" as="geometry" />
        </mxCell>
        <mxCell id="bmSGANUnVweaU7KZ2uj6-37" value="" style="shape=partialRectangle;connectable=0;fillColor=none;top=0;left=0;bottom=0;right=0;editable=1;overflow=hidden;" vertex="1" parent="bmSGANUnVweaU7KZ2uj6-36">
          <mxGeometry width="30" height="30" as="geometry" />
        </mxCell>
        <mxCell id="bmSGANUnVweaU7KZ2uj6-38" value="HasChildrensClub" style="shape=partialRectangle;connectable=0;fillColor=none;top=0;left=0;bottom=0;right=0;align=left;spacingLeft=6;overflow=hidden;" vertex="1" parent="bmSGANUnVweaU7KZ2uj6-36">
          <mxGeometry x="30" width="150" height="30" as="geometry" />
        </mxCell>
        <mxCell id="bmSGANUnVweaU7KZ2uj6-39" value="" style="shape=partialRectangle;collapsible=0;dropTarget=0;pointerEvents=0;fillColor=none;top=0;left=0;bottom=0;right=0;points=[[0,0.5],[1,0.5]];portConstraint=eastwest;" vertex="1" parent="bmSGANUnVweaU7KZ2uj6-22">
          <mxGeometry y="180" width="180" height="30" as="geometry" />
        </mxCell>
        <mxCell id="bmSGANUnVweaU7KZ2uj6-40" value="" style="shape=partialRectangle;connectable=0;fillColor=none;top=0;left=0;bottom=0;right=0;editable=1;overflow=hidden;" vertex="1" parent="bmSGANUnVweaU7KZ2uj6-39">
          <mxGeometry width="30" height="30" as="geometry" />
        </mxCell>
        <mxCell id="bmSGANUnVweaU7KZ2uj6-41" value="HasRestaurant" style="shape=partialRectangle;connectable=0;fillColor=none;top=0;left=0;bottom=0;right=0;align=left;spacingLeft=6;overflow=hidden;" vertex="1" parent="bmSGANUnVweaU7KZ2uj6-39">
          <mxGeometry x="30" width="150" height="30" as="geometry" />
        </mxCell>
        <mxCell id="bmSGANUnVweaU7KZ2uj6-42" value="" style="shape=partialRectangle;collapsible=0;dropTarget=0;pointerEvents=0;fillColor=none;top=0;left=0;bottom=0;right=0;points=[[0,0.5],[1,0.5]];portConstraint=eastwest;" vertex="1" parent="bmSGANUnVweaU7KZ2uj6-22">
          <mxGeometry y="210" width="180" height="30" as="geometry" />
        </mxCell>
        <mxCell id="bmSGANUnVweaU7KZ2uj6-43" value="" style="shape=partialRectangle;connectable=0;fillColor=none;top=0;left=0;bottom=0;right=0;editable=1;overflow=hidden;" vertex="1" parent="bmSGANUnVweaU7KZ2uj6-42">
          <mxGeometry width="30" height="30" as="geometry" />
        </mxCell>
        <mxCell id="bmSGANUnVweaU7KZ2uj6-44" value="DistanceToCityCenter" style="shape=partialRectangle;connectable=0;fillColor=none;top=0;left=0;bottom=0;right=0;align=left;spacingLeft=6;overflow=hidden;" vertex="1" parent="bmSGANUnVweaU7KZ2uj6-42">
          <mxGeometry x="30" width="150" height="30" as="geometry" />
        </mxCell>
        <mxCell id="bmSGANUnVweaU7KZ2uj6-45" value="" style="shape=partialRectangle;collapsible=0;dropTarget=0;pointerEvents=0;fillColor=none;top=0;left=0;bottom=0;right=0;points=[[0,0.5],[1,0.5]];portConstraint=eastwest;" vertex="1" parent="bmSGANUnVweaU7KZ2uj6-22">
          <mxGeometry y="240" width="180" height="30" as="geometry" />
        </mxCell>
        <mxCell id="bmSGANUnVweaU7KZ2uj6-46" value="" style="shape=partialRectangle;connectable=0;fillColor=none;top=0;left=0;bottom=0;right=0;editable=1;overflow=hidden;" vertex="1" parent="bmSGANUnVweaU7KZ2uj6-45">
          <mxGeometry width="30" height="30" as="geometry" />
        </mxCell>
        <mxCell id="bmSGANUnVweaU7KZ2uj6-47" value="DistanceToBeach" style="shape=partialRectangle;connectable=0;fillColor=none;top=0;left=0;bottom=0;right=0;align=left;spacingLeft=6;overflow=hidden;" vertex="1" parent="bmSGANUnVweaU7KZ2uj6-45">
          <mxGeometry x="30" width="150" height="30" as="geometry" />
        </mxCell>
        <mxCell id="bmSGANUnVweaU7KZ2uj6-48" value="" style="shape=partialRectangle;collapsible=0;dropTarget=0;pointerEvents=0;fillColor=none;top=0;left=0;bottom=0;right=0;points=[[0,0.5],[1,0.5]];portConstraint=eastwest;" vertex="1" parent="bmSGANUnVweaU7KZ2uj6-22">
          <mxGeometry y="270" width="180" height="30" as="geometry" />
        </mxCell>
        <mxCell id="bmSGANUnVweaU7KZ2uj6-49" value="" style="shape=partialRectangle;connectable=0;fillColor=none;top=0;left=0;bottom=0;right=0;editable=1;overflow=hidden;" vertex="1" parent="bmSGANUnVweaU7KZ2uj6-48">
          <mxGeometry width="30" height="30" as="geometry" />
        </mxCell>
        <mxCell id="bmSGANUnVweaU7KZ2uj6-50" value="City" style="shape=partialRectangle;connectable=0;fillColor=none;top=0;left=0;bottom=0;right=0;align=left;spacingLeft=6;overflow=hidden;" vertex="1" parent="bmSGANUnVweaU7KZ2uj6-48">
          <mxGeometry x="30" width="150" height="30" as="geometry" />
        </mxCell>
        <mxCell id="bmSGANUnVweaU7KZ2uj6-52" value="" style="shape=partialRectangle;collapsible=0;dropTarget=0;pointerEvents=0;fillColor=none;top=0;left=0;bottom=0;right=0;points=[[0,0.5],[1,0.5]];portConstraint=eastwest;" vertex="1" parent="bmSGANUnVweaU7KZ2uj6-22">
          <mxGeometry y="300" width="180" height="30" as="geometry" />
        </mxCell>
        <mxCell id="bmSGANUnVweaU7KZ2uj6-53" value="" style="shape=partialRectangle;connectable=0;fillColor=none;top=0;left=0;bottom=0;right=0;editable=1;overflow=hidden;" vertex="1" parent="bmSGANUnVweaU7KZ2uj6-52">
          <mxGeometry width="30" height="30" as="geometry" />
        </mxCell>
        <mxCell id="bmSGANUnVweaU7KZ2uj6-54" value="HasHalfBoard" style="shape=partialRectangle;connectable=0;fillColor=none;top=0;left=0;bottom=0;right=0;align=left;spacingLeft=6;overflow=hidden;" vertex="1" parent="bmSGANUnVweaU7KZ2uj6-52">
          <mxGeometry x="30" width="150" height="30" as="geometry" />
        </mxCell>
        <mxCell id="bmSGANUnVweaU7KZ2uj6-55" value="" style="shape=partialRectangle;collapsible=0;dropTarget=0;pointerEvents=0;fillColor=none;top=0;left=0;bottom=0;right=0;points=[[0,0.5],[1,0.5]];portConstraint=eastwest;" vertex="1" parent="bmSGANUnVweaU7KZ2uj6-22">
          <mxGeometry y="330" width="180" height="30" as="geometry" />
        </mxCell>
        <mxCell id="bmSGANUnVweaU7KZ2uj6-56" value="" style="shape=partialRectangle;connectable=0;fillColor=none;top=0;left=0;bottom=0;right=0;editable=1;overflow=hidden;" vertex="1" parent="bmSGANUnVweaU7KZ2uj6-55">
          <mxGeometry width="30" height="30" as="geometry" />
        </mxCell>
        <mxCell id="bmSGANUnVweaU7KZ2uj6-57" value="HasFullBoard" style="shape=partialRectangle;connectable=0;fillColor=none;top=0;left=0;bottom=0;right=0;align=left;spacingLeft=6;overflow=hidden;" vertex="1" parent="bmSGANUnVweaU7KZ2uj6-55">
          <mxGeometry x="30" width="150" height="30" as="geometry" />
        </mxCell>
        <mxCell id="bmSGANUnVweaU7KZ2uj6-58" value="" style="shape=partialRectangle;collapsible=0;dropTarget=0;pointerEvents=0;fillColor=none;top=0;left=0;bottom=0;right=0;points=[[0,0.5],[1,0.5]];portConstraint=eastwest;" vertex="1" parent="bmSGANUnVweaU7KZ2uj6-22">
          <mxGeometry y="360" width="180" height="30" as="geometry" />
        </mxCell>
        <mxCell id="bmSGANUnVweaU7KZ2uj6-59" value="" style="shape=partialRectangle;connectable=0;fillColor=none;top=0;left=0;bottom=0;right=0;editable=1;overflow=hidden;" vertex="1" parent="bmSGANUnVweaU7KZ2uj6-58">
          <mxGeometry width="30" height="30" as="geometry" />
        </mxCell>
        <mxCell id="bmSGANUnVweaU7KZ2uj6-60" value="IsAllInclusive" style="shape=partialRectangle;connectable=0;fillColor=none;top=0;left=0;bottom=0;right=0;align=left;spacingLeft=6;overflow=hidden;" vertex="1" parent="bmSGANUnVweaU7KZ2uj6-58">
          <mxGeometry x="30" width="150" height="30" as="geometry" />
        </mxCell>
        <mxCell id="bmSGANUnVweaU7KZ2uj6-78" value="" style="shape=partialRectangle;collapsible=0;dropTarget=0;pointerEvents=0;fillColor=none;top=0;left=0;bottom=0;right=0;points=[[0,0.5],[1,0.5]];portConstraint=eastwest;" vertex="1" parent="bmSGANUnVweaU7KZ2uj6-22">
          <mxGeometry y="390" width="180" height="30" as="geometry" />
        </mxCell>
        <mxCell id="bmSGANUnVweaU7KZ2uj6-79" value="FK" style="shape=partialRectangle;connectable=0;fillColor=none;top=0;left=0;bottom=0;right=0;fontStyle=0;overflow=hidden;" vertex="1" parent="bmSGANUnVweaU7KZ2uj6-78">
          <mxGeometry width="30" height="30" as="geometry" />
        </mxCell>
        <mxCell id="bmSGANUnVweaU7KZ2uj6-80" value="UserID" style="shape=partialRectangle;connectable=0;fillColor=none;top=0;left=0;bottom=0;right=0;align=left;spacingLeft=6;fontStyle=0;overflow=hidden;" vertex="1" parent="bmSGANUnVweaU7KZ2uj6-78">
          <mxGeometry x="30" width="150" height="30" as="geometry" />
        </mxCell>
        <mxCell id="bmSGANUnVweaU7KZ2uj6-75" value="" style="shape=partialRectangle;collapsible=0;dropTarget=0;pointerEvents=0;fillColor=none;top=0;left=0;bottom=0;right=0;points=[[0,0.5],[1,0.5]];portConstraint=eastwest;" vertex="1" parent="bmSGANUnVweaU7KZ2uj6-22">
          <mxGeometry y="420" width="180" height="30" as="geometry" />
        </mxCell>
        <mxCell id="bmSGANUnVweaU7KZ2uj6-76" value="" style="shape=partialRectangle;connectable=0;fillColor=none;top=0;left=0;bottom=0;right=0;editable=1;overflow=hidden;" vertex="1" parent="bmSGANUnVweaU7KZ2uj6-75">
          <mxGeometry width="30" height="30" as="geometry" />
        </mxCell>
        <mxCell id="bmSGANUnVweaU7KZ2uj6-77" value="" style="shape=partialRectangle;connectable=0;fillColor=none;top=0;left=0;bottom=0;right=0;align=left;spacingLeft=6;overflow=hidden;" vertex="1" parent="bmSGANUnVweaU7KZ2uj6-75">
          <mxGeometry x="30" width="150" height="30" as="geometry" />
        </mxCell>
        <mxCell id="bmSGANUnVweaU7KZ2uj6-61" value="Booking" style="shape=table;startSize=30;container=1;collapsible=1;childLayout=tableLayout;fixedRows=1;rowLines=0;fontStyle=1;align=center;resizeLast=1;" vertex="1" parent="1">
          <mxGeometry x="760" y="90" width="180" height="160" as="geometry" />
        </mxCell>
        <mxCell id="bmSGANUnVweaU7KZ2uj6-62" value="" style="shape=partialRectangle;collapsible=0;dropTarget=0;pointerEvents=0;fillColor=none;top=0;left=0;bottom=1;right=0;points=[[0,0.5],[1,0.5]];portConstraint=eastwest;" vertex="1" parent="bmSGANUnVweaU7KZ2uj6-61">
          <mxGeometry y="30" width="180" height="30" as="geometry" />
        </mxCell>
        <mxCell id="bmSGANUnVweaU7KZ2uj6-63" value="PK" style="shape=partialRectangle;connectable=0;fillColor=none;top=0;left=0;bottom=0;right=0;fontStyle=1;overflow=hidden;" vertex="1" parent="bmSGANUnVweaU7KZ2uj6-62">
          <mxGeometry width="30" height="30" as="geometry" />
        </mxCell>
        <mxCell id="bmSGANUnVweaU7KZ2uj6-64" value="BookingID" style="shape=partialRectangle;connectable=0;fillColor=none;top=0;left=0;bottom=0;right=0;align=left;spacingLeft=6;fontStyle=5;overflow=hidden;" vertex="1" parent="bmSGANUnVweaU7KZ2uj6-62">
          <mxGeometry x="30" width="150" height="30" as="geometry" />
        </mxCell>
        <mxCell id="bmSGANUnVweaU7KZ2uj6-81" value="" style="shape=partialRectangle;collapsible=0;dropTarget=0;pointerEvents=0;fillColor=none;top=0;left=0;bottom=0;right=0;points=[[0,0.5],[1,0.5]];portConstraint=eastwest;" vertex="1" parent="bmSGANUnVweaU7KZ2uj6-61">
          <mxGeometry y="60" width="180" height="40" as="geometry" />
        </mxCell>
        <mxCell id="bmSGANUnVweaU7KZ2uj6-82" value="FK" style="shape=partialRectangle;connectable=0;fillColor=none;top=0;left=0;bottom=0;right=0;fontStyle=0;overflow=hidden;" vertex="1" parent="bmSGANUnVweaU7KZ2uj6-81">
          <mxGeometry width="30" height="40" as="geometry" />
        </mxCell>
        <mxCell id="bmSGANUnVweaU7KZ2uj6-83" value="UserID" style="shape=partialRectangle;connectable=0;fillColor=none;top=0;left=0;bottom=0;right=0;align=left;spacingLeft=6;fontStyle=0;overflow=hidden;" vertex="1" parent="bmSGANUnVweaU7KZ2uj6-81">
          <mxGeometry x="30" width="150" height="40" as="geometry" />
        </mxCell>
        <mxCell id="bmSGANUnVweaU7KZ2uj6-89" value="" style="shape=partialRectangle;collapsible=0;dropTarget=0;pointerEvents=0;fillColor=none;top=0;left=0;bottom=0;right=0;points=[[0,0.5],[1,0.5]];portConstraint=eastwest;" vertex="1" parent="bmSGANUnVweaU7KZ2uj6-61">
          <mxGeometry y="100" width="180" height="30" as="geometry" />
        </mxCell>
        <mxCell id="bmSGANUnVweaU7KZ2uj6-90" value="" style="shape=partialRectangle;connectable=0;fillColor=none;top=0;left=0;bottom=0;right=0;editable=1;overflow=hidden;" vertex="1" parent="bmSGANUnVweaU7KZ2uj6-89">
          <mxGeometry width="30" height="30" as="geometry" />
        </mxCell>
        <mxCell id="bmSGANUnVweaU7KZ2uj6-91" value="StartDate" style="shape=partialRectangle;connectable=0;fillColor=none;top=0;left=0;bottom=0;right=0;align=left;spacingLeft=6;overflow=hidden;" vertex="1" parent="bmSGANUnVweaU7KZ2uj6-89">
          <mxGeometry x="30" width="150" height="30" as="geometry" />
        </mxCell>
        <mxCell id="bmSGANUnVweaU7KZ2uj6-92" value="" style="shape=partialRectangle;collapsible=0;dropTarget=0;pointerEvents=0;fillColor=none;top=0;left=0;bottom=0;right=0;points=[[0,0.5],[1,0.5]];portConstraint=eastwest;" vertex="1" parent="bmSGANUnVweaU7KZ2uj6-61">
          <mxGeometry y="130" width="180" height="30" as="geometry" />
        </mxCell>
        <mxCell id="bmSGANUnVweaU7KZ2uj6-93" value="" style="shape=partialRectangle;connectable=0;fillColor=none;top=0;left=0;bottom=0;right=0;editable=1;overflow=hidden;" vertex="1" parent="bmSGANUnVweaU7KZ2uj6-92">
          <mxGeometry width="30" height="30" as="geometry" />
        </mxCell>
        <mxCell id="bmSGANUnVweaU7KZ2uj6-94" value="EndDate" style="shape=partialRectangle;connectable=0;fillColor=none;top=0;left=0;bottom=0;right=0;align=left;spacingLeft=6;overflow=hidden;" vertex="1" parent="bmSGANUnVweaU7KZ2uj6-92">
          <mxGeometry x="30" width="150" height="30" as="geometry" />
        </mxCell>
      </root>
    </mxGraphModel>
  </diagram>
</mxfile>
